<?xml version="1.0" encoding="UTF-8"?>
<!DOCTYPE svg PUBLIC "-//W3C//DTD SVG 1.1//EN" "http://www.w3.org/Graphics/SVG/1.1/DTD/svg11.dtd">
<!-- Creator: CorelDRAW X7 -->
<svg xmlns="http://www.w3.org/2000/svg" xml:space="preserve" width="297mm" height="210mm" version="1.1" style="shape-rendering:geometricPrecision; text-rendering:geometricPrecision; image-rendering:optimizeQuality; fill-rule:evenodd; clip-rule:evenodd"
viewBox="0 0 29700 21000"
 xmlns:xlink="http://www.w3.org/1999/xlink">
 <defs>
  <style type="text/css">
   <![CDATA[
    .fil0 {fill:#00919D}
    .fil1 {fill:#FF7500}
   ]]>
  </style>
 </defs>
 <g id="Camada_x0020_1">
  <metadata id="CorelCorpID_0Corel-Layer"/>
  <g id="_208027770944">
   <path class="fil0" d="M11550 10114c206,0 395,75 540,198l-198 149c-97,-68 -215,-108 -342,-108 -330,0 -597,267 -597,597 0,329 267,596 597,596 165,0 314,-66 422,-174l169 168c-151,152 -360,245 -591,245 -461,0 -836,-374 -836,-835 0,-462 375,-836 836,-836z"/>
   <path class="fil0" d="M12546 10135l0 224c151,-151 360,-245 591,-245 288,0 542,146 692,367 -54,75 -97,159 -124,250l-9 8c-86,-226 -303,-386 -559,-386 -301,0 -550,223 -591,513l0 84 0 83 0 750 -244 0 0 -833 0 -815 244 0z"/>
   <path class="fil0" d="M16969 9661l0 702c-151,-151 -360,-245 -591,-245 -461,0 -835,374 -835,836 0,461 374,836 835,836 458,0 830,-369 836,-825l0 0 0 -11 0 -1293 -245 0zm-591 696c-329,0 -597,267 -597,597 0,330 268,597 597,597 330,0 597,-267 597,-597 0,-330 -267,-597 -597,-597z"/>
   <path class="fil0" d="M15469 11013c-2,21 -5,40 -7,59l-242 0 -32 0 -478 0 0 -243 2 -2 508 0c-56,-271 -296,-475 -584,-475 -288,0 -528,204 -584,475l0 0c-8,39 -12,80 -12,122 0,42 4,83 12,123l0 0c54,260 277,458 550,473l0 239c-446,-18 -802,-385 -802,-835 0,-461 375,-835 836,-835 461,0 836,374 836,835 0,22 -1,43 -3,64z"/>
   <polygon class="fil0" points="17846,10505 17846,11789 17587,11789 17587,10505 "/>
   <polygon class="fil0" points="17846,10339 17846,10110 17587,10110 17587,10339 "/>
   <path class="fil0" d="M9477 11781c-231,-135 -413,-277 -546,-423 -135,-152 -229,-302 -282,-452 -44,-124 -63,-244 -57,-362l0 -1 0 -1 0 0 0 -2 0 -1 0 -1 0 -1 0 -1 0 -1 0 0 0 -2 0 -1 0 -1 0 -1 1 -1 0 -1 0 -1 0 -1 0 -1 0 -1 0 -1 0 -1 0 0 0 -2 0 -1 0 -1 0 -1 0 -1 1 -2 0 -1 0 -1 0 -1 0 -1 0 -1 0 -1 0 -1 0 -1 0 -1 0 -1 1 -1 0 -1 0 -1 0 -1 0 -1 0 -1 0 -1 0 -1 0 -1 0 -1 1 -1 0 -1 0 -1 0 -1 0 -1 0 -1 0 -1 0 -1 1 -2 0 0 0 -1 0 -1 0 -1 0 -1 0 -1 0 -1 0 -1 1 -1 0 -1 0 -1 0 -3 0 -1 1 -1c19,-143 64,-274 133,-394 26,-44 54,-88 87,-132 33,-44 67,-86 103,-126l2 -2 0 0 1 -1 1 -1 0 -1 1 -1 1 0 1 -2 0 0 1 -1 1 0 1 -2 0 0 1 -1 1 -1 0 -1 2 -1 0 0 1 -2 0 0 1 -1 1 -1 1 -1 1 -1 0 0 1 -1 0 -1 2 -1 0 0 1 -2 1 0 0 -1 1 -1 1 0 1 -2 0 0 1 -1 1 -1 1 -1 0 0 1 -1 1 -1 1 -1 1 -1 0 0 1 -2 0 0 2 -1 0 -1 1 -1 1 0 0 -1 1 -1 1 0 1 -2 0 0 1 -1 1 -1 1 -1 1 0 0 -1 1 -1 1 -1 1 -1 0 0 1 -1 1 -1 1 -1 0 -1 2 -1 0 -1 2 -1 1 -1 1 -1 1 -1 0 -1 1 0 1 -1 0 -1 2 -1 0 0 1 -1 0 -1 1 -1 1 0 1 -1 1 -1 0 -1 2 -1 0 0 1 -1 0 -1 1 -1 1 0 1 -1 1 -1 0 -1 1 -1 1 0 1 -1 0 -1 1 -1 3 -2 0 0 1 -2 0 0 2 -1 0 0 1 -2 1 0 1 -1 0 0 0 -1 21 -20 1 0 0 -1 1 0 0 0 1 -1 0 -1 1 0 0 0 0 -1 1 -1 0 0 1 0 1 -1 4 -4 1 -1 0 0 0 0 1 -1 1 0 0 -1 1 0 0 -1 1 0 0 0 1 -1 0 -1 0 0 1 0 1 -1 0 0 0 -1 1 0 1 -1 0 0 1 0 0 -1 1 0 0 -1 0 0 1 -1 0 0 1 0 1 -1 0 0 0 -1 1 0 1 -1 0 0 1 -1 0 0 1 -1 0 0 1 -1 0 0 1 0 0 -1 1 0 0 -1 1 0 0 -1 0 0 1 0 1 -1 0 0 1 -1 0 0 1 -1 0 0 1 0 0 -1 0 0 1 -1 1 0 1 -1 1 -1 0 0 0 0 1 -1 0 0 1 -1 0 0 1 -1 0 0 1 0 0 -1 1 0 0 0 1 -1 0 0 1 -1 0 0 1 -1 0 0 0 0 1 0 0 -1 1 0 0 0 0 -1 1 0 0 -1 1 0 0 0 0 -1 1 0 0 0 0 0 0 0 1 -1 0 0 0 0 1 0 0 -1 0 0 1 0 0 -1 0 0 0 0 1 -1 1 0c15,-12 30,-23 45,-34l296 171 123 71 0 1 0 0 -1 0 -1 1 0 1 -1 0 -1 1 0 0 -1 1 -1 0 0 1 -1 1 0 0 -1 1 -1 0 -1 1 -2 2 -1 1 -1 1 0 0 -1 0 0 1 -2 1 -1 1 0 0 0 1 -1 0 -1 1 0 1 -1 0 0 0 -1 1 -1 1 0 0 -1 1 -1 0 0 0 -1 1 0 1 -1 0 0 1 -1 1 -1 0 -1 1 -1 1 0 0 -1 0 0 1 -1 0 0 1 -1 1 -1 0 0 1 -1 0 0 1 -1 0 -1 1 0 1 -1 0 0 0 -1 1 -1 0 0 1 -1 1 0 0 -1 0 0 1 -1 1 -1 0 0 1 0 0 -1 1 -1 0 -1 1 0 0 -1 1 0 0 -1 1 0 0 -1 1 -1 1 0 0 0 0 -1 1 -1 1 -1 0 0 1c-15,13 -30,27 -44,41l-1 0 -1 1 0 1 -1 0 0 1 -2 1 -1 1 0 0 -1 1 -1 2 -1 1 -1 0 -1 1 0 1 -1 0 0 1 -1 0 -1 1 0 0 -1 1 -1 1 0 0 0 0 -1 1 -1 1 -1 1 -2 2 0 0 -1 1 0 0 -1 0 0 1 -1 1 -1 0 0 1 0 0 -3 3 0 0c-27,27 -53,54 -78,81 -9,10 -19,21 -28,32l0 0c-70,84 -120,171 -148,258l0 0c-1,4 -3,9 -4,13l0 0c-2,8 -4,16 -6,24l-1 2c-1,3 -1,7 -2,11l-1 2c-1,4 -1,7 -2,11l0 0c-1,4 -2,8 -2,12l-1 2c0,4 -1,7 -1,11l-1 3 -1 8 0 3c-1,4 -1,7 -1,10l-1 4 0 8 -1 6 0 7 0 4c0,3 0,6 -1,9l0 5 0 6 0 8 0 5 1 6 0 9 0 5c7,118 55,237 148,356 -26,28 -54,56 -84,85 -33,32 -69,65 -105,97l-72 62 82 48 419 242 38 21 35 -24c19,-13 38,-27 56,-43 18,-14 37,-31 57,-50l1 -1c7,-7 14,-14 21,-20l-269 466zm-89 -781c72,71 161,143 267,213 -8,8 -15,16 -23,24l0 0c-18,16 -35,31 -52,45 -4,3 -8,7 -12,10l-300 -173c14,-13 27,-25 40,-38 28,-27 54,-54 80,-81z"/>
  </g>
  <polygon class="fil1" points="19833,10339 19833,10110 19449,10110 19449,10339 "/>
  <path class="fil1" d="M21109 11751c-78,30 -191,38 -274,40 -137,0 -280,-27 -383,-123 -92,-88 -125,-208 -125,-332l0 -997 -328 0 0 -229 328 0 0 -449 363 0 0 449 395 0 0 229 -395 0 0 955c0,258 207,292 419,233l0 224z"/>
  <polygon class="fil1" points="19833,10505 19833,11780 19449,11780 19449,10505 "/>
  <path class="fil1" d="M18834 10339l0 1441 -395 0 0 -1441 -288 0 0 -229 288 0 0 -192c0,-213 64,-412 236,-549 236,-187 563,-180 844,-126 34,7 63,14 88,23l0 226c-65,-16 -128,-28 -188,-37 -354,-52 -585,89 -585,469l0 186 451 0 0 229 -114 0 -337 0z"/>
  <path class="fil1" d="M9232 9209c231,136 413,277 546,424 135,151 229,302 282,452 53,150 70,295 50,437 -19,142 -64,273 -133,393 -26,44 -54,88 -87,132 -33,45 -67,86 -103,127 -35,40 -73,77 -109,112 -38,35 -72,64 -106,87l-419 -242c76,-66 144,-132 205,-198 240,-266 276,-555 53,-840 26,-28 54,-57 84,-86 33,-32 69,-64 105,-96l72 -63 -82 -47 -420 -242 -37 -22 -35 25c-20,14 -39,28 -56,42 -18,15 -37,32 -57,50l-1 2 -21 20 269 -467z"/>
 </g>
</svg>
